<svg width="30" height="29" viewBox="0 0 30 29" fill="none" xmlns="http://www.w3.org/2000/svg">
<rect width="30" height="29" fill="#F5F5F5"/>
<g clip-path="url(#clip0_0_1)" filter="url(#filter0_d_0_1)">
<rect width="375" height="988" transform="translate(-47 -547)" fill="white"/>
<path d="M-47 -317C-47 -328.046 -38.0457 -337 -27 -337H308C319.046 -337 328 -328.046 328 -317V265H-47V-317Z" fill="white"/>
<path d="M2.25 3.375H27C28.5 3.375 29.25 4.125 29.25 5.625V25.875C29.25 27.375 28.5 28.125 27 28.125H2.25C0.75 28.125 0 27.375 0 25.875V5.625C0 4.125 0.75 3.375 2.25 3.375Z" fill="#9CAEFF"/>
<g filter="url(#filter1_i_0_1)">
<path d="M0 7.875H29.25V25.875C29.25 26.4717 29.0129 27.044 28.591 27.466C28.169 27.8879 27.5967 28.125 27 28.125H2.25C1.65326 28.125 1.08097 27.8879 0.65901 27.466C0.237053 27.044 0 26.4717 0 25.875V7.875Z" fill="url(#paint0_linear_0_1)"/>
</g>
<path d="M5.625 0C6.375 0 6.75 0.375 6.75 1.125V4.5C6.75 5.25 6.375 5.625 5.625 5.625C4.875 5.625 4.5 5.25 4.5 4.5V1.125C4.5 0.375 4.875 0 5.625 0Z" fill="#9CAEFF"/>
<path d="M23.625 0C24.375 0 24.75 0.375 24.75 1.125V4.5C24.75 5.25 24.375 5.625 23.625 5.625C22.875 5.625 22.5 5.25 22.5 4.5V1.125C22.5 0.375 22.875 0 23.625 0Z" fill="#9CAEFF"/>
<g filter="url(#filter2_d_0_1)">
<path d="M18 21.375H24.75C25.5 21.375 25.875 21.75 25.875 22.5C25.875 23.25 25.5 23.625 24.75 23.625H18C17.25 23.625 16.875 23.25 16.875 22.5C16.875 21.75 17.25 21.375 18 21.375Z" fill="url(#paint1_linear_0_1)" shape-rendering="crispEdges"/>
</g>
</g>
<defs>
<filter id="filter0_d_0_1" x="-51" y="-551" width="383" height="996" filterUnits="userSpaceOnUse" color-interpolation-filters="sRGB">
<feFlood flood-opacity="0" result="BackgroundImageFix"/>
<feColorMatrix in="SourceAlpha" type="matrix" values="0 0 0 0 0 0 0 0 0 0 0 0 0 0 0 0 0 0 127 0" result="hardAlpha"/>
<feOffset/>
<feGaussianBlur stdDeviation="2"/>
<feComposite in2="hardAlpha" operator="out"/>
<feColorMatrix type="matrix" values="0 0 0 0 0 0 0 0 0 0 0 0 0 0 0 0 0 0 0.1 0"/>
<feBlend mode="normal" in2="BackgroundImageFix" result="effect1_dropShadow_0_1"/>
<feBlend mode="normal" in="SourceGraphic" in2="effect1_dropShadow_0_1" result="shape"/>
</filter>
<filter id="filter1_i_0_1" x="0" y="7.875" width="29.25" height="21.25" filterUnits="userSpaceOnUse" color-interpolation-filters="sRGB">
<feFlood flood-opacity="0" result="BackgroundImageFix"/>
<feBlend mode="normal" in="SourceGraphic" in2="BackgroundImageFix" result="shape"/>
<feColorMatrix in="SourceAlpha" type="matrix" values="0 0 0 0 0 0 0 0 0 0 0 0 0 0 0 0 0 0 127 0" result="hardAlpha"/>
<feOffset dy="2"/>
<feGaussianBlur stdDeviation="0.5"/>
<feComposite in2="hardAlpha" operator="arithmetic" k2="-1" k3="1"/>
<feColorMatrix type="matrix" values="0 0 0 0 0 0 0 0 0 0 0 0 0 0 0 0 0 0 0.1 0"/>
<feBlend mode="normal" in2="shape" result="effect1_innerShadow_0_1"/>
</filter>
<filter id="filter2_d_0_1" x="14.875" y="20.375" width="13" height="6.25" filterUnits="userSpaceOnUse" color-interpolation-filters="sRGB">
<feFlood flood-opacity="0" result="BackgroundImageFix"/>
<feColorMatrix in="SourceAlpha" type="matrix" values="0 0 0 0 0 0 0 0 0 0 0 0 0 0 0 0 0 0 127 0" result="hardAlpha"/>
<feOffset dy="1"/>
<feGaussianBlur stdDeviation="1"/>
<feComposite in2="hardAlpha" operator="out"/>
<feColorMatrix type="matrix" values="0 0 0 0 0 0 0 0 0 0 0 0 0 0 0 0 0 0 0.25 0"/>
<feBlend mode="normal" in2="BackgroundImageFix" result="effect1_dropShadow_0_1"/>
<feBlend mode="normal" in="SourceGraphic" in2="effect1_dropShadow_0_1" result="shape"/>
</filter>
<linearGradient id="paint0_linear_0_1" x1="5" y1="6.625" x2="27.5" y2="27.125" gradientUnits="userSpaceOnUse">
<stop stop-color="#7397F9"/>
<stop offset="1" stop-color="#6178F4"/>
</linearGradient>
<linearGradient id="paint1_linear_0_1" x1="18" y1="22.5" x2="26" y2="23.5" gradientUnits="userSpaceOnUse">
<stop stop-color="white"/>
<stop offset="1" stop-color="white" stop-opacity="0.7"/>
</linearGradient>
<clipPath id="clip0_0_1">
<rect width="375" height="988" fill="white" transform="translate(-47 -547)"/>
</clipPath>
</defs>
</svg>
