<svg width="26" height="27" viewBox="0 0 26 27" fill="none" xmlns="http://www.w3.org/2000/svg">
<rect width="26" height="27" fill="#F5F5F5"/>
<g clip-path="url(#clip0_0_1)" filter="url(#filter0_d_0_1)">
<rect width="375" height="988" transform="translate(-300 -548)" fill="white"/>
<path d="M-300 -318C-300 -329.046 -291.046 -338 -280 -338H55C66.0457 -338 75 -329.046 75 -318V264H-300V-318Z" fill="white"/>
<path d="M0 3.12C0 2.29252 0.328713 1.49894 0.913827 0.913827C1.49894 0.328713 2.29252 0 3.12 0H9.36C10.1875 0 10.9811 0.328713 11.5662 0.913827C12.1513 1.49894 12.48 2.29252 12.48 3.12V9.36C12.48 10.1875 12.1513 10.9811 11.5662 11.5662C10.9811 12.1513 10.1875 12.48 9.36 12.48H3.12C2.29252 12.48 1.49894 12.1513 0.913827 11.5662C0.328713 10.9811 0 10.1875 0 9.36V3.12ZM13.52 3.12C13.52 2.29252 13.8487 1.49894 14.4338 0.913827C15.0189 0.328713 15.8125 0 16.64 0H22.88C23.7075 0 24.5011 0.328713 25.0862 0.913827C25.6713 1.49894 26 2.29252 26 3.12V9.36C26 10.1875 25.6713 10.9811 25.0862 11.5662C24.5011 12.1513 23.7075 12.48 22.88 12.48H16.64C15.8125 12.48 15.0189 12.1513 14.4338 11.5662C13.8487 10.9811 13.52 10.1875 13.52 9.36V3.12Z" fill="#FFAAAC"/>
<path d="M0 17.12C0 16.2925 0.328713 15.4989 0.913827 14.9138C1.49894 14.3287 2.29252 14 3.12 14H9.36C10.1875 14 10.9811 14.3287 11.5662 14.9138C12.1513 15.4989 12.48 16.2925 12.48 17.12V23.36C12.48 24.1875 12.1513 24.9811 11.5662 25.5662C10.9811 26.1513 10.1875 26.48 9.36 26.48H3.12C2.29252 26.48 1.49894 26.1513 0.913827 25.5662C0.328713 24.9811 0 24.1875 0 23.36V17.12Z" fill="#FFC9CA"/>
<path d="M13.52 16.64C13.52 15.8125 13.8487 15.0189 14.4338 14.4338C15.019 13.8487 15.8125 13.52 16.64 13.52H22.88C23.7075 13.52 24.5011 13.8487 25.0862 14.4338C25.6713 15.0189 26 15.8125 26 16.64V22.88C26 23.7075 25.6713 24.5011 25.0862 25.0862C24.5011 25.6713 23.7075 26 22.88 26H16.64C15.8125 26 15.019 25.6713 14.4338 25.0862C13.8487 24.5011 13.52 23.7075 13.52 22.88V16.64Z" fill="#FE666A"/>
</g>
<defs>
<filter id="filter0_d_0_1" x="-304" y="-552" width="383" height="996" filterUnits="userSpaceOnUse" color-interpolation-filters="sRGB">
<feFlood flood-opacity="0" result="BackgroundImageFix"/>
<feColorMatrix in="SourceAlpha" type="matrix" values="0 0 0 0 0 0 0 0 0 0 0 0 0 0 0 0 0 0 127 0" result="hardAlpha"/>
<feOffset/>
<feGaussianBlur stdDeviation="2"/>
<feComposite in2="hardAlpha" operator="out"/>
<feColorMatrix type="matrix" values="0 0 0 0 0 0 0 0 0 0 0 0 0 0 0 0 0 0 0.1 0"/>
<feBlend mode="normal" in2="BackgroundImageFix" result="effect1_dropShadow_0_1"/>
<feBlend mode="normal" in="SourceGraphic" in2="effect1_dropShadow_0_1" result="shape"/>
</filter>
<clipPath id="clip0_0_1">
<rect width="375" height="988" fill="white" transform="translate(-300 -548)"/>
</clipPath>
</defs>
</svg>
