<svg width="30" height="29" viewBox="0 0 30 29" fill="none" xmlns="http://www.w3.org/2000/svg">
<rect width="30" height="29" fill="#F5F5F5"/>
<g clip-path="url(#clip0_0_1)" filter="url(#filter0_d_0_1)">
<rect width="375" height="988" transform="translate(-130 -546)" fill="white"/>
<path d="M-130 -316C-130 -327.046 -121.046 -336 -110 -336H225C236.046 -336 245 -327.046 245 -316V266H-130V-316Z" fill="white"/>
<path d="M0 13.4821L12.5968 14.7743C16.0671 15.13 18.4864 11.4132 16.755 8.38429L13.5557 2.78393C13.1808 2.12802 12.6392 1.58288 11.9857 1.20374C11.3322 0.824606 10.5901 0.624947 9.83464 0.625H4.28571C3.14907 0.625 2.05898 1.07653 1.25526 1.88026C0.451529 2.68398 0 3.77407 0 4.91071V13.4821Z" fill="#DEBCFF"/>
<path d="M0 5.98215H25.7143C26.8509 5.98215 27.941 6.43368 28.7447 7.2374C29.5485 8.04113 30 9.13122 30 10.2679V24.1964C30 25.3331 29.5485 26.4232 28.7447 27.2269C27.941 28.0306 26.8509 28.4821 25.7143 28.4821H4.28571C3.14907 28.4821 2.05898 28.0306 1.25526 27.2269C0.451529 26.4232 0 25.3331 0 24.1964V5.98215Z" fill="url(#paint0_linear_0_1)"/>
<g filter="url(#filter1_d_0_1)">
<path d="M6.42859 24.1964C6.42859 23.9123 6.54147 23.6397 6.7424 23.4388C6.94334 23.2379 7.21586 23.125 7.50002 23.125H22.5C22.7842 23.125 23.0567 23.2379 23.2576 23.4388C23.4586 23.6397 23.5714 23.9123 23.5714 24.1964C23.5714 24.4806 23.4586 24.7531 23.2576 24.954C23.0567 25.155 22.7842 25.2679 22.5 25.2679H7.50002C7.21586 25.2679 6.94334 25.155 6.7424 24.954C6.54147 24.7531 6.42859 24.4806 6.42859 24.1964Z" fill="url(#paint1_linear_0_1)" shape-rendering="crispEdges"/>
</g>
</g>
<defs>
<filter id="filter0_d_0_1" x="-134" y="-550" width="383" height="996" filterUnits="userSpaceOnUse" color-interpolation-filters="sRGB">
<feFlood flood-opacity="0" result="BackgroundImageFix"/>
<feColorMatrix in="SourceAlpha" type="matrix" values="0 0 0 0 0 0 0 0 0 0 0 0 0 0 0 0 0 0 127 0" result="hardAlpha"/>
<feOffset/>
<feGaussianBlur stdDeviation="2"/>
<feComposite in2="hardAlpha" operator="out"/>
<feColorMatrix type="matrix" values="0 0 0 0 0 0 0 0 0 0 0 0 0 0 0 0 0 0 0.1 0"/>
<feBlend mode="normal" in2="BackgroundImageFix" result="effect1_dropShadow_0_1"/>
<feBlend mode="normal" in="SourceGraphic" in2="effect1_dropShadow_0_1" result="shape"/>
</filter>
<filter id="filter1_d_0_1" x="4.42859" y="22.125" width="21.1429" height="6.14285" filterUnits="userSpaceOnUse" color-interpolation-filters="sRGB">
<feFlood flood-opacity="0" result="BackgroundImageFix"/>
<feColorMatrix in="SourceAlpha" type="matrix" values="0 0 0 0 0 0 0 0 0 0 0 0 0 0 0 0 0 0 127 0" result="hardAlpha"/>
<feOffset dy="1"/>
<feGaussianBlur stdDeviation="1"/>
<feComposite in2="hardAlpha" operator="out"/>
<feColorMatrix type="matrix" values="0 0 0 0 0 0 0 0 0 0 0 0 0 0 0 0 0 0 0.25 0"/>
<feBlend mode="normal" in2="BackgroundImageFix" result="effect1_dropShadow_0_1"/>
<feBlend mode="normal" in="SourceGraphic" in2="effect1_dropShadow_0_1" result="shape"/>
</filter>
<linearGradient id="paint0_linear_0_1" x1="4" y1="5.625" x2="24.5" y2="27.625" gradientUnits="userSpaceOnUse">
<stop stop-color="#CF81FD"/>
<stop offset="1" stop-color="#A45CFB"/>
</linearGradient>
<linearGradient id="paint1_linear_0_1" x1="8.00003" y1="22.625" x2="23.5" y2="24.625" gradientUnits="userSpaceOnUse">
<stop stop-color="white"/>
<stop offset="1" stop-color="white" stop-opacity="0.7"/>
</linearGradient>
<clipPath id="clip0_0_1">
<rect width="375" height="988" fill="white" transform="translate(-130 -546)"/>
</clipPath>
</defs>
</svg>
