<svg width="28" height="30" viewBox="0 0 28 30" fill="none" xmlns="http://www.w3.org/2000/svg">
<rect width="28" height="30" fill="#F5F5F5"/>
<g clip-path="url(#clip0_0_1)" filter="url(#filter0_d_0_1)">
<rect width="375" height="988" transform="translate(-131 -466)" fill="white"/>
<path d="M-131 -236C-131 -247.046 -122.046 -256 -111 -256H224C235.046 -256 244 -247.046 244 -236V346H-131V-236Z" fill="white"/>
<path d="M26.3015 6.3376C26.8151 6.62121 27.2442 7.04187 27.5432 7.55495C27.8423 8.06804 28.0001 8.65442 28 9.25192V20.7492C27.9999 21.3465 27.842 21.9326 27.5429 22.4455C27.2439 22.9584 26.8149 23.3789 26.3015 23.6624L15.5347 29.6036C15.0633 29.8638 14.5361 30 14.0005 30C13.465 30 12.9378 29.8638 12.4664 29.6036L1.69961 23.6635C1.18578 23.38 0.756478 22.9594 0.457244 22.4463C0.158009 21.9333 6.99841e-06 21.3468 0 20.7492V9.25082C9.66355e-05 8.65351 0.158029 8.06735 0.457057 7.55448C0.756086 7.04161 1.18507 6.62112 1.69854 6.3376L12.4653 0.396411C12.9367 0.136216 13.4639 0 13.9995 0C14.535 0 15.0622 0.136216 15.5336 0.396411L26.3004 6.3365L26.3015 6.3376Z" fill="url(#paint0_linear_0_1)"/>
<g filter="url(#filter1_d_0_1)">
<path d="M5.47044 9.11215L14 13.6112L22.5296 9.11215C22.65 9.04862 22.7808 9.01125 22.9147 9.00217C23.0485 8.9931 23.1827 9.0125 23.3096 9.05925C23.4364 9.10601 23.5535 9.17922 23.6541 9.2747C23.7547 9.37017 23.8368 9.48605 23.8958 9.61571C23.9548 9.74536 23.9896 9.88626 23.998 10.0304C24.0064 10.1745 23.9884 10.3189 23.945 10.4555C23.9015 10.5921 23.8335 10.7182 23.7449 10.8265C23.6562 10.9348 23.5486 11.0233 23.4282 11.0868L15.0211 15.5221V24.9005C15.0211 25.1921 14.9136 25.4718 14.7221 25.678C14.5306 25.8842 14.2708 26 14 26C13.7292 26 13.4694 25.8842 13.2779 25.678C13.0864 25.4718 12.9789 25.1921 12.9789 24.9005V15.5221L4.57184 11.0868C4.32864 10.9585 4.14274 10.7314 4.05503 10.4555C3.96733 10.1797 3.985 9.87756 4.10416 9.61571C4.22332 9.35385 4.43421 9.15369 4.69044 9.05925C4.94667 8.96482 5.22724 8.98385 5.47044 9.11215" fill="url(#paint1_linear_0_1)" shape-rendering="crispEdges"/>
</g>
</g>
<defs>
<filter id="filter0_d_0_1" x="-135" y="-470" width="383" height="996" filterUnits="userSpaceOnUse" color-interpolation-filters="sRGB">
<feFlood flood-opacity="0" result="BackgroundImageFix"/>
<feColorMatrix in="SourceAlpha" type="matrix" values="0 0 0 0 0 0 0 0 0 0 0 0 0 0 0 0 0 0 127 0" result="hardAlpha"/>
<feOffset/>
<feGaussianBlur stdDeviation="2"/>
<feComposite in2="hardAlpha" operator="out"/>
<feColorMatrix type="matrix" values="0 0 0 0 0 0 0 0 0 0 0 0 0 0 0 0 0 0 0.1 0"/>
<feBlend mode="normal" in2="BackgroundImageFix" result="effect1_dropShadow_0_1"/>
<feBlend mode="normal" in="SourceGraphic" in2="effect1_dropShadow_0_1" result="shape"/>
</filter>
<filter id="filter1_d_0_1" x="2" y="8" width="24" height="21" filterUnits="userSpaceOnUse" color-interpolation-filters="sRGB">
<feFlood flood-opacity="0" result="BackgroundImageFix"/>
<feColorMatrix in="SourceAlpha" type="matrix" values="0 0 0 0 0 0 0 0 0 0 0 0 0 0 0 0 0 0 127 0" result="hardAlpha"/>
<feOffset dy="1"/>
<feGaussianBlur stdDeviation="1"/>
<feComposite in2="hardAlpha" operator="out"/>
<feColorMatrix type="matrix" values="0 0 0 0 0 0 0 0 0 0 0 0 0 0 0 0 0 0 0.1 0"/>
<feBlend mode="normal" in2="BackgroundImageFix" result="effect1_dropShadow_0_1"/>
<feBlend mode="normal" in="SourceGraphic" in2="effect1_dropShadow_0_1" result="shape"/>
</filter>
<linearGradient id="paint0_linear_0_1" x1="14" y1="0" x2="21.5" y2="25.5" gradientUnits="userSpaceOnUse">
<stop stop-color="#7499F9"/>
<stop offset="1" stop-color="#6077F3"/>
</linearGradient>
<linearGradient id="paint1_linear_0_1" x1="14" y1="9" x2="14" y2="26" gradientUnits="userSpaceOnUse">
<stop stop-color="white"/>
<stop offset="1" stop-color="white" stop-opacity="0.7"/>
</linearGradient>
<clipPath id="clip0_0_1">
<rect width="375" height="988" fill="white" transform="translate(-131 -466)"/>
</clipPath>
</defs>
</svg>
