<svg width="34" height="26" viewBox="0 0 34 26" fill="none" xmlns="http://www.w3.org/2000/svg">
<rect width="34" height="26" fill="#F5F5F5"/>
<g clip-path="url(#clip0_0_1)" filter="url(#filter0_d_0_1)">
<rect width="375" height="988" transform="translate(-212 -468)" fill="white"/>
<path d="M-212 -238C-212 -249.046 -203.046 -258 -192 -258H143C154.046 -258 163 -249.046 163 -238V344H-212V-238Z" fill="white"/>
<path d="M2 5.41667C2 3.98008 2.56441 2.60233 3.56907 1.5865C4.57373 0.570683 5.93634 0 7.35714 0H26.6429C28.0637 0 29.4263 0.570683 30.4309 1.5865C31.4356 2.60233 32 3.98008 32 5.41667V20.5833C32 22.0199 31.4356 23.3977 30.4309 24.4135C29.4263 25.4293 28.0637 26 26.6429 26H7.35714C5.93634 26 4.57373 25.4293 3.56907 24.4135C2.56441 23.3977 2 22.0199 2 20.5833V5.41667Z" fill="url(#paint0_linear_0_1)"/>
<g filter="url(#filter1_d_0_1)">
<path d="M7.17541 1.65207e-08C6.00182 -9.3439e-05 4.86049 0.396315 3.9259 1.12862C2.9913 1.86093 2.31487 2.88885 2 4.05524L16.2149 14.5844C16.58 14.8547 17.0179 15 17.4672 15C17.9164 15 18.3544 14.8547 18.7194 14.5844L32 4.74662C31.8149 3.42851 31.1758 2.22328 30.1998 1.35159C29.2237 0.479902 27.9759 8.91015e-05 26.685 1.65207e-08H7.17541Z" fill="#4BFFD9"/>
</g>
</g>
<defs>
<filter id="filter0_d_0_1" x="-216" y="-472" width="383" height="996" filterUnits="userSpaceOnUse" color-interpolation-filters="sRGB">
<feFlood flood-opacity="0" result="BackgroundImageFix"/>
<feColorMatrix in="SourceAlpha" type="matrix" values="0 0 0 0 0 0 0 0 0 0 0 0 0 0 0 0 0 0 127 0" result="hardAlpha"/>
<feOffset/>
<feGaussianBlur stdDeviation="2"/>
<feComposite in2="hardAlpha" operator="out"/>
<feColorMatrix type="matrix" values="0 0 0 0 0 0 0 0 0 0 0 0 0 0 0 0 0 0 0.1 0"/>
<feBlend mode="normal" in2="BackgroundImageFix" result="effect1_dropShadow_0_1"/>
<feBlend mode="normal" in="SourceGraphic" in2="effect1_dropShadow_0_1" result="shape"/>
</filter>
<filter id="filter1_d_0_1" x="0" y="0" width="34" height="19" filterUnits="userSpaceOnUse" color-interpolation-filters="sRGB">
<feFlood flood-opacity="0" result="BackgroundImageFix"/>
<feColorMatrix in="SourceAlpha" type="matrix" values="0 0 0 0 0 0 0 0 0 0 0 0 0 0 0 0 0 0 127 0" result="hardAlpha"/>
<feOffset dy="2"/>
<feGaussianBlur stdDeviation="1"/>
<feComposite in2="hardAlpha" operator="out"/>
<feColorMatrix type="matrix" values="0 0 0 0 0 0 0 0 0 0 0 0 0 0 0 0 0 0 0.1 0"/>
<feBlend mode="normal" in2="BackgroundImageFix" result="effect1_dropShadow_0_1"/>
<feBlend mode="normal" in="SourceGraphic" in2="effect1_dropShadow_0_1" result="shape"/>
</filter>
<linearGradient id="paint0_linear_0_1" x1="16" y1="8" x2="16" y2="24.5" gradientUnits="userSpaceOnUse">
<stop stop-color="#00DDAE"/>
<stop offset="1" stop-color="#00CBA0"/>
</linearGradient>
<clipPath id="clip0_0_1">
<rect width="375" height="988" fill="white" transform="translate(-212 -468)"/>
</clipPath>
</defs>
</svg>
