<svg width="28" height="29" viewBox="0 0 28 29" fill="none" xmlns="http://www.w3.org/2000/svg">
<path d="M0.293426 20.7004C-0.104016 20.9193 -0.0956486 22.0465 0.305977 22.2412L14.1767 28.9769C14.2053 28.9915 14.2368 28.9994 14.2689 29C14.301 29.0005 14.3328 28.9937 14.3618 28.9801L27.6887 22.8916C28.0882 22.7095 28.1091 21.595 27.7169 21.355L14.2865 13.1322C14.2531 13.1102 14.2143 13.098 14.1745 13.0969C14.1346 13.0957 14.0952 13.1058 14.0606 13.1259L0.293426 20.7004Z" fill="#FE666A"/>
<path d="M0.293426 14.152C-0.104016 14.3709 -0.0956486 15.4981 0.305977 15.6928L14.1767 22.4285C14.2053 22.4431 14.2368 22.451 14.2689 22.4516C14.301 22.4521 14.3328 22.4453 14.3618 22.4317L27.6887 16.3443C28.0882 16.1622 28.1091 15.0477 27.7169 14.8077L14.2865 6.58383C14.2531 6.56183 14.2143 6.54958 14.1745 6.54847C14.1346 6.54735 14.0952 6.55741 14.0606 6.57751L0.293426 14.152Z" fill="#FFAAAC"/>
<path d="M0.293426 7.60258C-0.104016 7.82254 -0.0956486 8.94972 0.305977 9.14442L14.1767 15.8801C14.2053 15.8948 14.2368 15.9026 14.2689 15.9032C14.301 15.9037 14.3328 15.8969 14.3618 15.8833L27.6887 9.79484C28.0882 9.61276 28.1091 8.49822 27.7169 8.25826L14.2865 0.0354401C14.2531 0.0134389 14.2143 0.00119859 14.1745 8.36178e-05C14.1346 -0.00103136 14.0952 0.00902278 14.0606 0.0291254L0.293426 7.60258Z" fill="#FFC9CA"/>
</svg>
