<svg width="32" height="27" viewBox="0 0 32 27" fill="none" xmlns="http://www.w3.org/2000/svg">
<rect width="32" height="27" fill="#F5F5F5"/>
<g clip-path="url(#clip0_0_1)" filter="url(#filter0_d_0_1)">
<rect width="375" height="988" transform="translate(-297 -467)" fill="white"/>
<path d="M-297 -237C-297 -248.046 -288.046 -257 -277 -257H58C69.0457 -257 78 -248.046 78 -237V345H-297V-237Z" fill="white"/>
<path d="M0.25 5.86737V24.125C0.25 24.7217 0.487053 25.294 0.90901 25.716C1.33097 26.1379 1.90326 26.375 2.5 26.375H29.5C30.0967 26.375 30.669 26.1379 31.091 25.716C31.5129 25.294 31.75 24.7217 31.75 24.125V6.20038C31.75 5.60364 31.5129 5.03134 31.091 4.60938C30.669 4.18743 30.0967 3.95038 29.5 3.95038H19.0218C18.5902 3.95045 18.1677 3.82641 17.8046 3.59303C17.4416 3.35965 17.1534 3.02678 16.9742 2.63412L16.6008 1.81513C16.4215 1.42268 16.1332 1.09005 15.7701 0.856876C15.4071 0.623704 14.9847 0.499825 14.5532 0.5H6.42175C5.99017 0.499923 5.56768 0.62397 5.20464 0.857349C4.84161 1.09073 4.55335 1.42359 4.37425 1.81625L3.91188 2.82875C3.75936 3.16322 3.51388 3.44678 3.20472 3.64564C2.89555 3.84451 2.53573 3.95029 2.16812 3.95038C1.10725 3.95038 0.25 4.80875 0.25 5.86625V5.86737Z" fill="url(#paint0_linear_0_1)"/>
<g filter="url(#filter1_d_0_1)">
<path d="M20.25 14.3125C20.25 16.2519 19.4796 18.1119 18.1082 19.4832C16.7369 20.8546 14.8769 21.625 12.9375 21.625C10.9981 21.625 9.13814 20.8546 7.76678 19.4832C6.39542 18.1119 5.625 16.2519 5.625 14.3125C5.625 12.3731 6.39542 10.5131 7.76678 9.14178C9.13814 7.77042 10.9981 7 12.9375 7C14.8769 7 16.7369 7.77042 18.1082 9.14178C19.4796 10.5131 20.25 12.3731 20.25 14.3125ZM25.125 6.5625C25.125 6.41332 25.1843 6.27024 25.2898 6.16475C25.3952 6.05926 25.5383 6 25.6875 6H27.9375C28.0867 6 28.2298 6.05926 28.3352 6.16475C28.4407 6.27024 28.5 6.41332 28.5 6.5625C28.5 6.71168 28.4407 6.85476 28.3352 6.96025C28.2298 7.06574 28.0867 7.125 27.9375 7.125H25.6875C25.5383 7.125 25.3952 7.06574 25.2898 6.96025C25.1843 6.85476 25.125 6.71168 25.125 6.5625Z" fill="url(#paint1_linear_0_1)" shape-rendering="crispEdges"/>
</g>
</g>
<defs>
<filter id="filter0_d_0_1" x="-301" y="-471" width="383" height="996" filterUnits="userSpaceOnUse" color-interpolation-filters="sRGB">
<feFlood flood-opacity="0" result="BackgroundImageFix"/>
<feColorMatrix in="SourceAlpha" type="matrix" values="0 0 0 0 0 0 0 0 0 0 0 0 0 0 0 0 0 0 127 0" result="hardAlpha"/>
<feOffset/>
<feGaussianBlur stdDeviation="2"/>
<feComposite in2="hardAlpha" operator="out"/>
<feColorMatrix type="matrix" values="0 0 0 0 0 0 0 0 0 0 0 0 0 0 0 0 0 0 0.1 0"/>
<feBlend mode="normal" in2="BackgroundImageFix" result="effect1_dropShadow_0_1"/>
<feBlend mode="normal" in="SourceGraphic" in2="effect1_dropShadow_0_1" result="shape"/>
</filter>
<filter id="filter1_d_0_1" x="1.625" y="4" width="30.875" height="23.625" filterUnits="userSpaceOnUse" color-interpolation-filters="sRGB">
<feFlood flood-opacity="0" result="BackgroundImageFix"/>
<feColorMatrix in="SourceAlpha" type="matrix" values="0 0 0 0 0 0 0 0 0 0 0 0 0 0 0 0 0 0 127 0" result="hardAlpha"/>
<feOffset dy="2"/>
<feGaussianBlur stdDeviation="2"/>
<feComposite in2="hardAlpha" operator="out"/>
<feColorMatrix type="matrix" values="0 0 0 0 0 0 0 0 0 0 0 0 0 0 0 0 0 0 0.1 0"/>
<feBlend mode="normal" in2="BackgroundImageFix" result="effect1_dropShadow_0_1"/>
<feBlend mode="normal" in="SourceGraphic" in2="effect1_dropShadow_0_1" result="shape"/>
</filter>
<linearGradient id="paint0_linear_0_1" x1="16" y1="0.5" x2="16" y2="26.375" gradientUnits="userSpaceOnUse">
<stop stop-color="#FFC726"/>
<stop offset="1" stop-color="#EDAB00"/>
</linearGradient>
<linearGradient id="paint1_linear_0_1" x1="17.0625" y1="6" x2="17.0625" y2="21.625" gradientUnits="userSpaceOnUse">
<stop stop-color="white"/>
<stop offset="1" stop-color="white" stop-opacity="0.7"/>
</linearGradient>
<clipPath id="clip0_0_1">
<rect width="375" height="988" fill="white" transform="translate(-297 -467)"/>
</clipPath>
</defs>
</svg>
