<svg width="30" height="33" viewBox="0 0 30 33" fill="none" xmlns="http://www.w3.org/2000/svg">
<path d="M25.8097 10.9615C25.8097 12.401 25.5262 13.8264 24.9753 15.1563C24.4245 16.4863 23.617 17.6946 22.5992 18.7125C21.5813 19.7304 20.3729 20.5378 19.043 21.0887C17.7131 21.6395 16.2877 21.9231 14.8482 21.9231C13.4087 21.9231 11.9833 21.6395 10.6534 21.0887C9.32348 20.5378 8.11509 19.7304 7.09722 18.7125C6.07935 17.6946 5.27192 16.4863 4.72106 15.1563C4.17019 13.8264 3.88666 12.401 3.88666 10.9615C3.88666 8.05436 5.04153 5.26625 7.09722 3.21056C9.15291 1.15487 11.941 0 14.8482 0C17.7554 0 20.5435 1.15487 22.5992 3.21056C24.6549 5.26625 25.8097 8.05436 25.8097 10.9615Z" fill="#FFC2C2"/>
<path d="M30 27.6923C30 30.2423 23.2846 32.3077 15 32.3077C6.71538 32.3077 0 30.2423 0 27.6923C0 25.1423 6.71538 23.0769 15 23.0769C23.2846 23.0769 30 25.1423 30 27.6923Z" fill="#FF8686"/>
</svg>
